<svg version="1.1" id="Layer_1" xmlns="http://www.w3.org/2000/svg" xmlns:xlink="http://www.w3.org/1999/xlink" x="0px" y="0px"
	 width="100%" viewBox="0 0 207 158" enable-background="new 0 0 207 158" xml:space="preserve">
<path fill="#000000" opacity="1.000000" stroke="none" 
	d="
M0.999999,102.000000 
	C1.000000,68.353661 1.000000,34.707325 1.000000,1.030495 
	C69.937988,1.030495 138.876007,1.030495 207.907013,1.030495 
	C207.907013,53.572720 207.907013,106.145660 207.907013,158.859299 
	C139.000198,158.859299 70.000145,158.859299 1.000000,158.859299 
	C1.000000,141.916901 1.000000,124.927109 1.384410,107.242912 
	C4.007581,106.367172 6.246336,106.185745 8.485106,106.004501 
	C17.794744,105.250793 22.485067,100.748886 24.028341,91.466545 
	C25.328487,83.646553 26.884226,75.869072 28.340384,67.999489 
	C35.374420,67.999489 41.887718,68.359024 48.345711,67.914711 
	C57.886341,67.258324 60.555786,65.082741 63.049828,56.953690 
	C63.619816,55.095871 64.043129,53.193058 64.682228,50.742371 
	C53.308247,50.742371 42.274509,50.742371 31.284807,50.742371 
	C32.392998,44.317776 33.415115,38.392181 34.518047,31.998051 
	C46.599384,31.998051 58.721832,32.033157 70.843971,31.986555 
	C79.970932,31.951471 86.407143,24.572603 85.426506,15.010626 
	C65.660820,15.010626 45.857521,14.890228 26.057478,15.091152 
	C20.786175,15.144642 16.910120,19.417534 16.011526,24.914644 
	C14.956566,31.368301 13.980556,37.835762 12.846179,44.275364 
	C9.930199,60.828712 7.014374,77.382843 3.921438,93.903519 
	C3.400306,96.687096 1.996157,99.305359 0.999999,102.000000 
M74.700401,86.690132 
	C74.826187,86.819496 74.951981,86.948860 74.716721,87.686562 
	C68.079460,89.973244 64.323196,96.538048 66.046753,102.839050 
	C67.114922,106.744049 73.744331,109.812057 79.398369,108.950256 
	C80.343307,108.806229 81.222183,108.264984 82.164680,108.058121 
	C83.026131,107.869057 84.020653,107.605858 84.804855,107.854225 
	C90.460640,109.645508 93.792389,107.987747 95.005150,102.555573 
	C96.032806,97.952515 97.279442,93.366821 97.850067,88.702599 
	C98.364746,84.495644 98.855446,79.937462 94.331078,77.131989 
	C89.054520,73.860085 78.015511,74.144539 73.256836,78.099480 
	C71.755890,79.346916 70.947998,81.782005 70.576584,83.811462 
	C70.470131,84.393158 73.002052,85.457703 74.700401,86.690132 
M129.895508,104.350433 
	C132.394531,105.813538 134.733780,107.772499 137.424820,108.639641 
	C143.601868,110.630074 153.410599,107.107574 155.062805,102.320198 
	C155.558350,100.884308 154.759399,97.868813 153.655777,97.290672 
	C152.159210,96.506691 149.714951,93.886597 147.634598,98.000801 
	C146.726105,99.797516 142.680084,100.607361 140.036972,100.655205 
	C138.850479,100.676682 137.610199,97.727333 135.537964,94.998245 
	C142.459839,94.998245 147.598083,95.119690 152.724045,94.922340 
	C154.212006,94.865059 156.150085,94.315063 157.051880,93.272827 
	C161.583481,88.035515 158.824493,78.388481 152.301392,75.985718 
	C145.252075,73.389145 137.722076,74.758568 133.040192,80.660995 
	C127.651344,87.454689 126.585396,95.434807 129.895508,104.350433 
M40.964928,107.941940 
	C49.377781,110.630615 58.051388,108.218254 61.457146,102.842697 
	C62.330200,101.464684 62.744652,98.759087 61.966427,97.634911 
	C60.997826,96.235748 58.553864,95.183510 56.785225,95.237305 
	C55.493378,95.276588 54.444515,97.765976 52.960846,98.404175 
	C50.995472,99.249588 48.607735,99.919350 46.606449,99.551025 
	C45.529335,99.352783 44.228130,96.845062 44.192207,95.351387 
	C44.139614,93.164467 45.365074,90.979813 45.627850,88.745049 
	C46.094940,84.772659 49.130585,83.266373 52.086594,83.413719 
	C53.852039,83.501724 55.478573,86.376640 58.239815,89.028633 
	C60.267086,89.127304 63.832306,88.660965 64.857994,84.562950 
	C65.969551,80.121796 63.216099,77.226036 59.258255,76.049995 
	C48.613449,72.886971 37.004612,76.072754 34.928261,92.162521 
	C34.122383,98.407303 33.003578,104.336700 40.964928,107.941940 
M192.766327,63.000263 
	C191.548965,62.851772 190.331604,62.703281 189.107468,62.553967 
	C189.446777,60.214005 189.708389,58.286991 190.009598,56.366196 
	C190.322937,54.368130 190.674500,52.376068 191.028183,50.269199 
	C182.036148,50.401031 181.552475,50.899815 178.337555,62.706059 
	C165.789413,63.808048 164.422119,64.684738 164.051315,72.268555 
	C168.317169,72.268555 172.562698,72.268555 177.081223,72.268555 
	C176.372391,76.648811 175.734970,80.587761 175.093979,84.548759 
	C183.166733,84.963509 185.609375,82.502045 187.656296,71.949821 
	C194.362595,72.311119 201.465637,72.784447 202.793549,63.000874 
	C199.623093,63.000874 196.651306,63.000874 192.766327,63.000263 
M116.834709,77.029678 
	C115.282021,76.357430 113.696327,75.054985 112.182999,75.134239 
	C108.081963,75.348999 105.719963,77.885147 104.994652,81.957466 
	C103.412811,90.838783 101.791985,99.713158 100.182076,108.618088 
	C107.342461,109.327850 109.733948,107.593262 111.067245,101.051788 
	C111.716339,97.867157 112.442802,94.695114 112.979240,91.491409 
	C113.847969,86.303238 119.380936,81.950211 124.315674,83.267921 
	C126.865822,83.948875 128.586624,84.362602 128.945358,81.239304 
	C129.287735,78.258179 128.932602,75.153389 125.062614,75.131004 
	C122.573349,75.116600 120.077545,76.231949 116.834709,77.029678 
z"/>
<path fill="#058BBB" opacity="1.000000" stroke="none" 
	d="
M0.999999,102.416664 
	C1.996157,99.305359 3.400306,96.687096 3.921438,93.903519 
	C7.014374,77.382843 9.930199,60.828712 12.846179,44.275364 
	C13.980556,37.835762 14.956566,31.368301 16.011526,24.914644 
	C16.910120,19.417534 20.786175,15.144642 26.057478,15.091152 
	C45.857521,14.890228 65.660820,15.010626 85.426506,15.010626 
	C86.407143,24.572603 79.970932,31.951471 70.843971,31.986555 
	C58.721832,32.033157 46.599384,31.998051 34.518047,31.998051 
	C33.415115,38.392181 32.392998,44.317776 31.284807,50.742371 
	C42.274509,50.742371 53.308247,50.742371 64.682228,50.742371 
	C64.043129,53.193058 63.619816,55.095871 63.049828,56.953690 
	C60.555786,65.082741 57.886341,67.258324 48.345711,67.914711 
	C41.887718,68.359024 35.374420,67.999489 28.340384,67.999489 
	C26.884226,75.869072 25.328487,83.646553 24.028341,91.466545 
	C22.485067,100.748886 17.794744,105.250793 8.485106,106.004501 
	C6.246336,106.185745 4.007581,106.367172 1.384410,106.774254 
	C1.000000,105.611107 1.000000,104.222221 0.999999,102.416664 
z"/>
<path fill="#058BBB" opacity="1.000000" stroke="none" 
	d="
M74.324226,86.300858 
	C73.002052,85.457703 70.470131,84.393158 70.576584,83.811462 
	C70.947998,81.782005 71.755890,79.346916 73.256836,78.099480 
	C78.015511,74.144539 89.054520,73.860085 94.331078,77.131989 
	C98.855446,79.937462 98.364746,84.495644 97.850067,88.702599 
	C97.279442,93.366821 96.032806,97.952515 95.005150,102.555573 
	C93.792389,107.987747 90.460640,109.645508 84.804855,107.854225 
	C84.020653,107.605858 83.026131,107.869057 82.164680,108.058121 
	C81.222183,108.264984 80.343307,108.806229 79.398369,108.950256 
	C73.744331,109.812057 67.114922,106.744049 66.046753,102.839050 
	C64.323196,96.538048 68.079460,89.973244 75.308510,87.351273 
	C79.806122,87.015976 83.711952,87.015976 88.764503,87.015976 
	C87.530594,85.508369 86.633461,83.346268 85.488297,83.205765 
	C81.478485,82.713791 77.193161,82.267662 74.324226,86.300858 
M86.069504,98.691467 
	C85.477554,97.181061 84.739975,94.330864 84.317207,94.376823 
	C81.488869,94.684273 78.693993,95.519669 76.018318,96.528618 
	C75.835022,96.597725 76.187691,100.132751 77.184006,100.907181 
	C80.334641,103.356148 83.207115,101.358429 86.069504,98.691467 
z"/>
<path fill="#058BBB" opacity="1.000000" stroke="none" 
	d="
M129.611938,104.066818 
	C126.585396,95.434807 127.651344,87.454689 133.040192,80.660995 
	C137.722076,74.758568 145.252075,73.389145 152.301392,75.985718 
	C158.824493,78.388481 161.583481,88.035515 157.051880,93.272827 
	C156.150085,94.315063 154.212006,94.865059 152.724045,94.922340 
	C147.598083,95.119690 142.459839,94.998245 135.537964,94.998245 
	C137.610199,97.727333 138.850479,100.676682 140.036972,100.655205 
	C142.680084,100.607361 146.726105,99.797516 147.634598,98.000801 
	C149.714951,93.886597 152.159210,96.506691 153.655777,97.290672 
	C154.759399,97.868813 155.558350,100.884308 155.062805,102.320198 
	C153.410599,107.107574 143.601868,110.630074 137.424820,108.639641 
	C134.733780,107.772499 132.394531,105.813538 129.611938,104.066818 
M149.001297,87.890854 
	C148.746658,86.309669 149.023758,83.832436 148.141495,83.308861 
	C145.016418,81.454315 141.394012,83.401505 139.109573,87.979370 
	C142.265274,87.979370 145.189728,87.979370 149.001297,87.890854 
z"/>
<path fill="#058BBB" opacity="1.000000" stroke="none" 
	d="
M40.584396,107.805206 
	C33.003578,104.336700 34.122383,98.407303 34.928261,92.162521 
	C37.004612,76.072754 48.613449,72.886971 59.258255,76.049995 
	C63.216099,77.226036 65.969551,80.121796 64.857994,84.562950 
	C63.832306,88.660965 60.267086,89.127304 58.239815,89.028633 
	C55.478573,86.376640 53.852039,83.501724 52.086594,83.413719 
	C49.130585,83.266373 46.094940,84.772659 45.627850,88.745049 
	C45.365074,90.979813 44.139614,93.164467 44.192207,95.351387 
	C44.228130,96.845062 45.529335,99.352783 46.606449,99.551025 
	C48.607735,99.919350 50.995472,99.249588 52.960846,98.404175 
	C54.444515,97.765976 55.493378,95.276588 56.785225,95.237305 
	C58.553864,95.183510 60.997826,96.235748 61.966427,97.634911 
	C62.744652,98.759087 62.330200,101.464684 61.457146,102.842697 
	C58.051388,108.218254 49.377781,110.630615 40.584396,107.805206 
z"/>
<path fill="#058BBB" opacity="1.000000" stroke="none" 
	d="
M193.222931,63.000568 
	C196.651306,63.000874 199.623093,63.000874 202.793549,63.000874 
	C201.465637,72.784447 194.362595,72.311119 187.656296,71.949821 
	C185.609375,82.502045 183.166733,84.963509 175.093979,84.548759 
	C175.734970,80.587761 176.372391,76.648811 177.081223,72.268555 
	C172.562698,72.268555 168.317169,72.268555 164.051315,72.268555 
	C164.422119,64.684738 165.789413,63.808048 178.337555,62.706059 
	C181.552475,50.899815 182.036148,50.401031 191.028183,50.269199 
	C190.674500,52.376068 190.322937,54.368130 190.009598,56.366196 
	C189.708389,58.286991 189.446777,60.214005 189.107468,62.553967 
	C190.331604,62.703281 191.548965,62.851772 193.222931,63.000568 
z"/>
<path fill="#058BBB" opacity="1.000000" stroke="none" 
	d="
M117.209686,76.935303 
	C120.077545,76.231949 122.573349,75.116600 125.062614,75.131004 
	C128.932602,75.153389 129.287735,78.258179 128.945358,81.239304 
	C128.586624,84.362602 126.865822,83.948875 124.315674,83.267921 
	C119.380936,81.950211 113.847969,86.303238 112.979240,91.491409 
	C112.442802,94.695114 111.716339,97.867157 111.067245,101.051788 
	C109.733948,107.593262 107.342461,109.327850 100.182076,108.618088 
	C101.791985,99.713158 103.412811,90.838783 104.994652,81.957466 
	C105.719963,77.885147 108.081963,75.348999 112.182999,75.134239 
	C113.696327,75.054985 115.282021,76.357430 117.209686,76.935303 
z"/>
<path fill="#000000" opacity="1.000000" stroke="none" 
	d="
M85.981033,99.068207 
	C83.207115,101.358429 80.334641,103.356148 77.184006,100.907181 
	C76.187691,100.132751 75.835022,96.597725 76.018318,96.528618 
	C78.693993,95.519669 81.488869,94.684273 84.317207,94.376823 
	C84.739975,94.330864 85.477554,97.181061 85.981033,99.068207 
z"/>
<path fill="#000000" opacity="1.000000" stroke="none" 
	d="
M74.512314,86.495499 
	C77.193161,82.267662 81.478485,82.713791 85.488297,83.205765 
	C86.633461,83.346268 87.530594,85.508369 88.764503,87.015976 
	C83.711952,87.015976 79.806122,87.015976 75.489037,87.047104 
	C74.951981,86.948860 74.826187,86.819496 74.512314,86.495499 
z"/>
<path fill="#000000" opacity="1.000000" stroke="none" 
	d="
M148.557739,87.935112 
	C145.189728,87.979370 142.265274,87.979370 139.109573,87.979370 
	C141.394012,83.401505 145.016418,81.454315 148.141495,83.308861 
	C149.023758,83.832436 148.746658,86.309669 148.557739,87.935112 
z"/>
</svg>