<?xml version="1.0" encoding="utf-8"?>
<!-- Generator: Adobe Illustrator 26.1.0, SVG Export Plug-In . SVG Version: 6.00 Build 0)  -->
<svg version="1.1" id="Layer_1" xmlns="http://www.w3.org/2000/svg" xmlns:xlink="http://www.w3.org/1999/xlink" x="0px" y="0px"
	 viewBox="0 0 22 18" style="enable-background:new 0 0 22 18;" xml:space="preserve">
<style type="text/css">
	.st0{display:none;}
	.st1{display:inline;fill-rule:evenodd;clip-rule:evenodd;fill:#199C49;}
	.st2{fill-rule:evenodd;clip-rule:evenodd;fill:#CD8837;}
</style>
<g id="Layer_2_00000082359770697941169110000016324784976548817846_" class="st0">
	<path class="st1" d="M8.1,7.7c-0.6,0.7-0.9,1.5-0.9,2.4c0,0.6,0.1,1.2,0.4,1.7s0.7,1,1.2,1.3c0.1,0.1,0.2,0.1,0.3,0.2
		c0.2,0.4,0.4,0.7,0.5,1.2c0.1,0.4,0.1,0.9,0,1.3c-0.1-1.1-1.7-2.5-2.4-2.8c-0.7-0.4,0,1.3,0,1.3s-1-0.8-2.1-2.4c0,0,0,0,0-0.1
		c-0.7-1-1.1-1.7-2.2-2c1-0.3,2.4,0.4,2.4,0.4C5.1,8.8,3.6,7.6,3.6,7.6C2.9,6.1,2.7,4.5,2.9,2.9C3.5,5.4,6.4,6.9,8.1,7.7z
		 M14.4,10.1c0-0.9-0.3-1.7-0.9-2.4c1.7-0.8,4.7-2.3,5.3-4.8c0.2,1.6-0.1,3.2-0.7,4.7c0,0-1.5,1.2-1.8,2.6c0,0,1.4-0.8,2.4-0.4
		c-1,0.3-1.5,1-2.2,2v0.1c-1,1.6-2.2,2.4-2.2,2.4s0.7-1.7,0-1.3s-2.2,1.8-2.4,2.8c-0.1-0.4-0.1-0.9,0-1.3c0.1-0.4,0.3-0.8,0.5-1.2
		c0.1-0.1,0.2-0.1,0.3-0.2c0.5-0.3,0.9-0.8,1.2-1.3C14.3,11.3,14.4,10.7,14.4,10.1z M10.8,12.7c1.4,0,2.5-1.1,2.5-2.5
		s-1.1-2.5-2.5-2.5s-2.5,1.1-2.5,2.5C8.4,11.6,9.5,12.7,10.8,12.7z"/>
</g>
<path class="st2" d="M13.7,7.5c0.6,0.7,0.9,1.5,0.9,2.4c0,0.6-0.1,1.2-0.4,1.7c-0.3,0.5-0.7,1-1.2,1.3c-0.1,0.1-0.2,0.1-0.3,0.2
	c-0.2,0.4-0.4,0.7-0.5,1.2c-0.1,0.4-0.1,0.9,0,1.3c0.1-1.1,1.7-2.5,2.4-2.8c0.7-0.4,0,1.3,0,1.3s1.3-0.9,2-2.1
	c0.5-0.8,0.9-1.7,1.2-2.6l-1.3,0.7c0.3-1.4,1.8-2.6,1.8-2.6c0.6-1.5,0.9-3.1,0.7-4.7C18.3,5.2,15.4,6.8,13.7,7.5z M7.4,10
	c0-0.9,0.3-1.7,0.9-2.4C6.6,6.8,3.7,5.2,3,2.8C2.9,4.4,3.1,6,3.7,7.5c0,0,1.5,1.2,1.8,2.6L4.3,9.4c0.3,0.9,0.8,1.8,1.2,2.6
	c0.7,1.2,2,2.1,2,2.1s-0.7-1.7,0-1.3c0.7,0.4,2.2,1.8,2.3,2.8c0.1-0.4,0.1-0.9,0-1.3c-0.1-0.4-0.3-0.8-0.5-1.2
	C9.2,13.2,9.1,13.1,9,13c-0.5-0.3-0.9-0.8-1.2-1.3C7.5,11.2,7.4,10.6,7.4,10z M11,12.5c1.4,0,2.5-1.1,2.5-2.5c0-1.4-1.1-2.5-2.5-2.5
	c-1.4,0-2.5,1.1-2.5,2.5C8.6,11.4,9.7,12.5,11,12.5z"/>
</svg>
